<svg id="svg" version="1.1" width="500" height="502" xmlns="http://www.w3.org/2000/svg" xmlns:xlink="http://www.w3.org/1999/xlink" style="display: block;"><g id="svgg"><path id="path0" d="M0.000 200.800 L 0.000 401.600 200.000 401.600 L 400.000 401.600 400.000 200.800 L 400.000 0.000 200.000 0.000 L 0.000 0.000 0.000 200.800 M230.216 46.000 C 247.593 63.380,262.124 77.600,262.506 77.600 C 262.887 77.600,263.200 78.140,263.200 78.800 C 263.200 79.460,263.519 80.000,263.908 80.000 C 264.297 80.000,265.201 80.892,265.915 81.983 L 267.215 83.966 232.780 118.383 C 213.670 137.483,197.723 152.800,196.947 152.800 C 195.752 152.800,129.835 87.770,127.969 84.749 C 126.817 82.886,128.368 81.185,161.889 47.540 C 186.338 23.001,195.291 14.494,196.711 14.454 C 198.191 14.412,205.744 21.524,230.216 46.000 M131.567 148.335 C 154.050 170.753,165.600 182.820,165.600 183.891 C 165.600 184.963,154.403 196.639,132.545 218.362 C 96.024 254.656,96.998 253.762,95.070 252.730 C 91.778 250.969,27.200 185.453,27.200 183.875 C 27.200 181.951,94.444 114.400,96.359 114.400 C 97.006 114.400,112.849 129.671,131.567 148.335 M332.925 148.599 C 351.776 167.408,367.200 183.265,367.200 183.836 C 367.200 185.692,299.389 252.800,297.514 252.800 C 295.167 252.800,227.896 185.797,228.191 183.753 C 228.451 181.951,295.979 114.407,297.525 114.403 C 298.143 114.401,314.073 129.789,332.925 148.599 M232.431 249.151 C 251.114 267.824,266.400 283.664,266.400 284.350 C 266.400 286.418,198.512 353.734,196.718 353.446 C 195.878 353.310,181.783 339.831,165.395 323.490 C 126.726 284.932,126.932 285.151,127.870 283.404 C 129.766 279.875,194.877 215.376,196.631 215.290 C 198.028 215.221,206.493 223.227,232.431 249.151 " stroke="none" fill="#ffffff" fill-rule="evenodd"></path><path id="path1" d="M163.200 50.413 C 145.380 68.383,130.703 83.239,130.583 83.426 C 130.464 83.613,134.190 87.509,138.862 92.083 C 143.534 96.657,148.480 101.592,149.852 103.049 C 155.876 109.446,196.039 149.213,196.697 149.432 C 197.099 149.566,212.357 134.753,230.604 116.514 L 263.782 83.353 230.790 50.476 C 212.644 32.394,197.303 17.632,196.699 17.670 C 196.095 17.709,181.020 32.443,163.200 50.413 M63.375 150.155 C 45.239 168.280,30.400 183.466,30.400 183.902 C 30.400 186.324,96.133 250.330,97.649 249.384 C 98.502 248.851,99.200 248.179,99.200 247.891 C 99.200 247.602,101.206 245.439,103.658 243.083 C 116.940 230.322,162.400 184.514,162.400 183.891 C 162.400 183.490,147.539 168.321,129.375 150.181 L 96.350 117.200 63.375 150.155 M265.600 149.104 C 248.220 166.427,233.316 181.363,232.479 182.296 L 230.959 183.993 264.245 217.194 L 297.532 250.396 330.366 217.586 C 348.425 199.540,363.200 184.330,363.200 183.785 C 363.200 182.924,298.364 117.593,297.520 117.604 C 297.344 117.606,282.980 131.781,265.600 149.104 M162.800 251.496 L 130.000 284.400 162.970 317.190 C 181.104 335.225,196.275 350.092,196.684 350.228 C 197.093 350.364,212.318 335.592,230.518 317.400 L 263.609 284.325 230.577 251.362 C 212.409 233.233,197.107 218.443,196.572 218.496 C 196.037 218.548,180.840 233.398,162.800 251.496 " stroke="none" fill="#41146b" fill-rule="evenodd"></path><path id="path2" d="M162.412 49.988 C 130.136 82.271,129.274 83.214,130.772 84.588 C 132.040 85.750,132.136 85.764,131.311 84.664 C 130.299 83.313,194.576 17.600,196.909 17.600 C 197.398 17.600,212.647 32.397,230.796 50.483 L 263.795 83.366 241.398 105.717 C 229.080 118.010,219.152 128.219,219.336 128.403 C 219.521 128.588,229.900 118.506,242.401 105.999 L 265.131 83.259 231.565 50.058 C 213.104 31.797,197.458 16.844,196.796 16.828 C 196.134 16.813,180.662 31.734,162.412 49.988 M139.200 93.200 C 140.693 94.740,142.094 96.000,142.314 96.000 C 142.534 96.000,141.493 94.740,140.000 93.200 C 138.507 91.660,137.106 90.400,136.886 90.400 C 136.666 90.400,137.707 91.660,139.200 93.200 M143.200 96.999 C 143.200 97.466,152.134 106.400,152.601 106.400 C 153.182 106.400,148.619 101.376,145.804 98.917 C 144.372 97.666,143.200 96.803,143.200 96.999 M173.931 128.241 C 181.889 136.293,188.554 142.769,188.742 142.632 C 189.145 142.338,160.632 113.600,159.937 113.600 C 159.676 113.600,165.973 120.188,173.931 128.241 M62.565 149.835 C 44.434 167.970,29.607 183.346,29.615 184.004 C 29.628 185.001,91.297 247.188,95.294 250.234 C 96.350 251.039,96.791 250.961,97.694 249.810 C 98.681 248.552,98.659 248.510,97.493 249.420 C 96.205 250.426,30.400 186.160,30.400 183.897 C 30.400 183.458,45.195 168.337,63.277 150.294 C 81.360 132.251,96.014 117.347,95.842 117.176 C 95.670 117.004,80.696 131.700,62.565 149.835 M96.800 117.077 C 96.800 117.446,111.560 132.463,129.600 150.448 C 147.640 168.434,162.400 183.492,162.400 183.911 C 162.400 184.330,154.767 192.262,145.437 201.537 C 136.108 210.811,128.723 218.400,129.026 218.400 C 130.092 218.400,163.200 184.960,163.200 183.883 C 163.200 183.283,148.260 167.856,130.000 149.600 C 111.740 131.344,96.800 116.709,96.800 117.077 M282.141 131.577 C 273.936 139.729,267.488 146.398,267.811 146.395 C 268.135 146.392,272.072 142.702,276.561 138.195 C 281.049 133.688,287.605 127.142,291.130 123.650 L 297.538 117.299 330.369 150.047 C 348.426 168.058,363.200 183.241,363.200 183.785 C 363.200 184.330,348.424 199.540,330.365 217.587 L 297.530 250.398 264.653 217.599 C 246.571 199.559,231.557 184.800,231.289 184.800 C 231.022 184.800,245.831 199.829,264.200 218.198 L 297.598 251.595 330.448 218.798 C 348.516 200.759,363.614 185.436,363.999 184.747 C 364.629 183.620,300.350 117.850,297.783 116.994 C 297.385 116.862,290.346 123.424,282.141 131.577 M207.774 139.300 C 195.952 151.207,197.442 150.519,192.830 146.200 L 189.200 142.800 192.767 146.600 C 194.728 148.690,196.708 150.396,197.167 150.392 C 198.170 150.382,218.883 129.802,218.363 129.330 C 218.164 129.149,213.398 133.635,207.774 139.300 M258.400 155.200 C 253.812 159.600,250.404 163.194,250.829 163.187 C 251.253 163.180,255.200 159.580,259.600 155.187 C 269.940 144.863,269.171 144.872,258.400 155.200 M241.501 172.200 C 236.906 176.710,232.439 181.288,231.574 182.374 C 230.708 183.459,234.588 179.859,240.195 174.374 C 245.802 168.888,250.392 164.310,250.395 164.200 C 250.411 163.564,249.066 164.774,241.501 172.200 M162.470 250.815 C 144.249 269.067,129.604 284.000,129.927 284.000 C 130.249 284.000,145.283 269.240,163.336 251.200 C 181.388 233.160,196.471 218.400,196.852 218.400 C 197.233 218.400,212.412 233.250,230.584 251.400 L 263.622 284.400 241.455 306.400 C 229.263 318.500,219.268 328.758,219.244 329.195 C 219.220 329.632,229.460 319.734,242.001 307.199 L 264.802 284.409 231.404 251.004 C 213.036 232.632,197.466 217.607,196.804 217.615 C 196.142 217.624,180.692 232.564,162.470 250.815 M112.000 234.800 C 110.507 236.340,109.509 237.600,109.782 237.600 C 110.332 237.600,115.200 232.873,115.200 232.338 C 115.200 231.644,114.646 232.070,112.000 234.800 M104.800 241.883 C 99.298 247.150,98.259 248.911,103.316 244.400 C 106.991 241.121,109.449 238.326,108.575 238.419 C 108.479 238.429,106.780 239.988,104.800 241.883 M153.760 309.051 C 164.892 320.189,174.149 329.190,174.331 329.053 C 174.747 328.741,134.780 288.800,134.053 288.800 C 133.760 288.800,142.629 297.913,153.760 309.051 M180.035 334.789 C 187.474 342.838,188.802 344.150,188.786 343.436 C 188.779 343.086,185.644 339.740,181.821 336.000 C 175.535 329.851,175.364 329.735,180.035 334.789 M207.774 340.100 C 195.952 352.007,197.442 351.319,192.830 347.000 L 189.200 343.600 192.767 347.400 C 194.728 349.490,196.708 351.196,197.167 351.192 C 198.170 351.182,218.883 330.602,218.363 330.130 C 218.164 329.949,213.398 334.435,207.774 340.100 " stroke="none" fill="#684489" fill-rule="evenodd"></path><path id="path3" d="M162.200 48.618 C 143.830 66.998,128.800 82.559,128.800 83.197 C 128.800 84.748,195.239 151.200,196.789 151.200 C 197.643 151.200,254.945 94.830,265.327 83.778 C 266.093 82.962,198.394 15.200,196.813 15.200 C 196.146 15.200,180.570 30.239,162.200 48.618 M231.570 50.062 L 265.140 83.268 231.570 116.826 C 213.107 135.283,197.607 150.388,197.128 150.392 C 196.397 150.399,167.597 121.972,136.810 90.859 L 129.219 83.188 162.406 49.994 C 180.659 31.737,196.134 16.813,196.796 16.828 C 197.458 16.844,213.107 31.799,231.570 50.062 M61.400 149.383 C 43.030 167.766,28.000 183.167,28.000 183.607 C 28.000 184.637,95.353 252.000,96.383 252.000 C 97.465 252.000,164.800 184.625,164.800 183.542 C 164.800 182.212,97.812 116.434,96.199 116.179 C 95.271 116.033,83.560 127.206,61.400 149.383 M262.996 149.404 C 244.628 167.775,229.600 183.283,229.600 183.865 C 229.600 185.019,296.346 252.000,297.495 252.000 C 298.652 252.000,365.600 185.015,365.600 183.858 C 365.600 182.380,299.075 116.000,297.593 116.000 C 296.933 116.000,281.364 131.032,262.996 149.404 M130.196 149.796 C 148.348 167.944,163.200 183.289,163.200 183.895 C 163.200 184.798,143.156 205.015,101.441 246.186 L 96.083 251.475 62.852 218.337 C 44.575 200.112,29.616 184.662,29.610 184.004 C 29.599 182.700,95.086 116.800,96.393 116.800 C 96.833 116.800,112.044 131.648,130.196 149.796 M331.603 150.364 C 357.508 176.295,364.547 183.766,363.999 184.747 C 363.614 185.436,348.517 200.758,330.449 218.796 L 297.600 251.593 264.751 218.796 C 246.683 200.758,231.550 185.368,231.120 184.596 C 230.307 183.133,296.078 116.426,297.776 116.992 C 298.178 117.126,313.400 132.143,331.603 150.364 M196.678 216.661 C 195.228 217.082,128.800 283.374,128.800 284.400 C 128.800 286.014,195.737 352.169,197.079 351.881 C 198.179 351.645,219.184 331.001,257.953 292.054 L 265.906 284.064 231.831 250.206 C 212.873 231.369,197.278 216.487,196.678 216.661 M231.407 251.007 L 264.807 284.414 231.374 317.807 C 212.986 336.173,197.569 351.200,197.115 351.200 C 196.190 351.200,129.600 285.239,129.600 284.323 C 129.600 283.170,195.628 217.630,196.804 217.615 C 197.466 217.607,213.037 232.633,231.407 251.007 " stroke="none" fill="#8f75a8" fill-rule="evenodd"></path><path id="path4" d="M161.889 47.540 C 128.368 81.185,126.817 82.886,127.969 84.749 C 129.835 87.770,195.752 152.800,196.947 152.800 C 197.723 152.800,213.670 137.483,232.780 118.383 L 267.215 83.966 265.915 81.983 C 265.201 80.892,264.297 80.000,263.908 80.000 C 263.519 80.000,263.200 79.460,263.200 78.800 C 263.200 78.140,262.887 77.600,262.506 77.600 C 262.124 77.600,247.593 63.380,230.216 46.000 C 205.744 21.524,198.191 14.412,196.711 14.454 C 195.291 14.494,186.338 23.001,161.889 47.540 M231.968 49.178 C 250.637 67.865,265.648 83.435,265.327 83.778 C 254.945 94.830,197.643 151.200,196.789 151.200 C 195.239 151.200,128.800 84.748,128.800 83.197 C 128.800 81.647,195.261 15.201,196.813 15.200 C 197.480 15.200,213.300 30.490,231.968 49.178 M61.191 148.311 C 38.299 171.149,27.200 182.761,27.200 183.875 C 27.200 185.453,91.778 250.969,95.070 252.730 C 96.998 253.762,96.024 254.656,132.545 218.362 C 154.403 196.639,165.600 184.963,165.600 183.891 C 165.600 181.998,98.245 114.400,96.359 114.400 C 95.712 114.400,79.887 129.660,61.191 148.311 M262.400 148.356 C 243.700 167.028,228.306 182.957,228.191 183.753 C 227.896 185.797,295.167 252.800,297.514 252.800 C 299.389 252.800,367.200 185.692,367.200 183.836 C 367.200 182.423,298.939 114.399,297.525 114.403 C 296.906 114.404,281.100 129.683,262.400 148.356 M131.199 149.530 C 149.680 167.752,164.800 183.057,164.800 183.542 C 164.800 184.625,97.465 252.000,96.383 252.000 C 95.353 252.000,28.000 184.637,28.000 183.607 C 28.000 181.972,94.773 115.954,96.199 116.179 C 96.969 116.301,112.719 131.309,131.199 149.530 M332.196 149.396 C 350.568 167.764,365.600 183.272,365.600 183.858 C 365.600 185.015,298.652 252.000,297.495 252.000 C 296.346 252.000,229.600 185.019,229.600 183.865 C 229.600 182.391,296.116 116.000,297.593 116.000 C 298.253 116.000,313.825 131.028,332.196 149.396 M161.712 248.690 C 122.767 287.897,125.977 283.603,131.358 289.294 C 145.133 303.863,195.440 353.240,196.718 353.446 C 198.512 353.734,266.400 286.418,266.400 284.350 C 266.400 282.155,198.743 215.186,196.631 215.290 C 195.340 215.353,185.044 225.202,161.712 248.690 M257.953 292.054 C 219.184 331.001,198.179 351.645,197.079 351.881 C 195.737 352.169,128.800 286.014,128.800 284.400 C 128.800 283.374,195.228 217.082,196.678 216.661 C 197.278 216.487,212.873 231.369,231.831 250.206 L 265.906 284.064 257.953 292.054 " stroke="none" fill="#dad1e2" fill-rule="evenodd"></path></g></svg>